<svg width="275" height="20" viewBox="0 0 275 20" fill="none" xmlns="http://www.w3.org/2000/svg">
<path d="M18.3018 8.51771C12.3984 12.6897 5.55247 18.8057 4.35938 20H5.52457C7.46136 20 8.05386 19.6967 9.66905 18.6801C9.97925 18.4848 11.0949 17.784 11.4735 17.5335C18.4461 12.9432 22.7556 11.332 28.692 11.8849C33.7299 12.354 39.0089 14.6336 44.8724 17.382C50.6615 20.0968 52.3727 20.7305 57.1736 18.8538C66.1807 15.3317 74.0098 10.621 74.9992 9.95526C74.9992 9.95526 68.0617 8.31174 58.8104 6.86873C47.4314 5.09575 35.5763 3.97273 23.0835 6.25111C21.2319 6.68634 20.1459 7.1851 18.3018 8.51771Z" fill="#252525"/>
<path d="M14.2224 4.27574C11.8044 6.55685 4.75708 14.3163 0 20H2.70509C3.08759 19.6153 3.52439 19.1828 3.93899 18.7681C10.1037 12.6183 17.5541 5.83912 28.796 0.0168866C28.796 0.0168866 24.3308 -0.223862 19.3631 1.11268C17.1509 1.7061 15.9848 2.45225 14.2224 4.27574Z" fill="#252525"/>
<path d="M120.967 0.49472L116.189 19.3381H110.987L115.762 0.49472H120.967Z" fill="#252525"/>
<path d="M134.3 7.6524L133.085 12.1746H122.554L123.779 7.6524H134.3Z" fill="#252525"/>
<path d="M174.53 0.494629L169.749 19.3381H164.552L169.325 0.494629H174.53Z" fill="#252525"/>
<path d="M94.7324 19.9976C87.4551 19.9976 82.9992 18.2256 82.9992 18.2256L87.4808 0.49472H92.6645L89.1195 14.7291C89.1195 14.7291 92.4543 15.5664 95.4595 15.5664C98.4337 15.5664 102.368 14.6804 102.368 14.6804L103.238 11.4414H108.444L106.583 18.338C106.583 18.3374 101.939 19.9976 94.7324 19.9976Z" fill="#252525"/>
<path d="M154.196 19.3382L155.689 13.4661C154.885 12.5111 152.796 10.1171 151.1 8.84461C148.824 7.11541 145.73 5.5973 144.906 5.21317L141.333 19.3388H136.13L140.908 0.495331H146.107C147.993 1.33555 150.945 2.8477 154.375 5.42248C155.409 6.19669 156.336 6.9608 157.152 7.69339L158.974 0.495331H164.177L159.404 19.3388H154.196V19.3382Z" fill="#252525"/>
<path d="M174.898 19.3125L179.663 0.494629H184.929C186.816 1.34258 189.741 2.84999 193.141 5.3986C194.169 6.17341 195.097 6.93691 195.917 7.6701L197.738 0.494629H202.938L198.172 19.3125H192.967L194.455 13.4458C193.652 12.4908 191.558 10.0944 189.861 8.82132C187.588 7.09747 184.498 5.57699 183.682 5.1875L180.097 19.3131H174.898V19.3125Z" fill="#252525"/>
<path d="M226.821 18.3933C226.821 18.3933 222.232 20 215.123 20C207.977 19.9774 203.521 18.2583 203.521 18.2583L207.698 1.66557C207.698 1.66557 212.218 0 219.435 0C226.672 0 230.998 1.77736 230.998 1.77736L229.817 6.14973C229.817 6.14973 225.286 4.44906 218.701 4.42587C215.429 4.42587 211.859 5.33211 211.859 5.33211L209.62 14.7339C209.62 14.7339 212.908 15.5717 215.853 15.5717C218.762 15.5717 222.683 14.7059 222.683 14.7059L223.507 11.2862C221.82 11.0697 219.795 10.9116 217.53 10.9038C217.171 10.9038 216.694 10.9163 216.399 10.9348L217.222 7.28012C217.519 7.2599 218.27 7.24922 218.631 7.24922C223.916 7.27241 227.954 8.37723 229.32 8.8131L226.821 18.3933Z" fill="#252525"/>
<path d="M239.39 19.18C238.546 19.18 237.82 18.992 237.212 18.616C236.608 18.24 236.148 17.714 235.832 17.038C235.516 16.358 235.358 15.572 235.358 14.68C235.358 13.788 235.516 13.004 235.832 12.328C236.148 11.648 236.608 11.12 237.212 10.744C237.82 10.368 238.546 10.18 239.39 10.18C240.046 10.18 240.63 10.294 241.142 10.522C241.654 10.75 242.082 11.076 242.426 11.5C242.774 11.92 243.03 12.418 243.194 12.994L242.108 13.282C241.928 12.622 241.608 12.11 241.148 11.746C240.688 11.382 240.102 11.2 239.39 11.2C238.758 11.2 238.224 11.346 237.788 11.638C237.352 11.93 237.026 12.34 236.81 12.868C236.594 13.396 236.486 14.012 236.486 14.716C236.486 15.408 236.596 16.012 236.816 16.528C237.036 17.044 237.362 17.446 237.794 17.734C238.23 18.018 238.762 18.16 239.39 18.16C240.102 18.16 240.688 17.978 241.148 17.614C241.608 17.25 241.928 16.738 242.108 16.078L243.194 16.366C243.03 16.942 242.774 17.442 242.426 17.866C242.082 18.286 241.654 18.61 241.142 18.838C240.63 19.066 240.046 19.18 239.39 19.18ZM245.296 16.06C245.34 16.736 245.53 17.256 245.866 17.62C246.206 17.984 246.674 18.166 247.27 18.166C247.694 18.166 248.064 18.068 248.38 17.872C248.7 17.676 248.95 17.394 249.13 17.026L250.156 17.38C249.904 17.948 249.526 18.39 249.022 18.706C248.518 19.022 247.95 19.18 247.318 19.18C246.686 19.18 246.13 19.04 245.65 18.76C245.174 18.48 244.804 18.084 244.54 17.572C244.28 17.06 244.15 16.47 244.15 15.802C244.15 15.102 244.278 14.492 244.534 13.972C244.794 13.448 245.158 13.046 245.626 12.766C246.098 12.482 246.646 12.34 247.27 12.34C247.89 12.34 248.424 12.48 248.872 12.76C249.324 13.036 249.67 13.434 249.91 13.954C250.15 14.47 250.27 15.084 250.27 15.796C250.27 15.912 250.268 16 250.264 16.06H245.296ZM247.306 13.3C246.726 13.3 246.268 13.462 245.932 13.786C245.596 14.11 245.39 14.582 245.314 15.202H249.154C249.022 13.934 248.406 13.3 247.306 13.3ZM254.538 12.352C255.186 12.352 255.702 12.512 256.086 12.832C256.47 13.152 256.738 13.544 256.89 14.008C257.042 14.468 257.118 14.938 257.118 15.418V19H256.038V15.754C256.038 15.058 255.902 14.486 255.63 14.038C255.362 13.59 254.912 13.366 254.28 13.366C253.728 13.366 253.292 13.554 252.972 13.93C252.656 14.302 252.498 14.854 252.498 15.586V19H251.418V12.52H252.378V13.354C252.622 13.03 252.926 12.782 253.29 12.61C253.658 12.438 254.074 12.352 254.538 12.352ZM260.34 13.402V16.504V16.852C260.34 17.056 260.348 17.22 260.364 17.344C260.38 17.468 260.416 17.576 260.472 17.668C260.568 17.84 260.704 17.964 260.88 18.04C261.06 18.116 261.28 18.154 261.54 18.154C261.728 18.154 261.98 18.13 262.296 18.082V19C261.964 19.068 261.644 19.102 261.336 19.102C260.908 19.102 260.532 19.032 260.208 18.892C259.888 18.748 259.65 18.524 259.494 18.22C259.402 18.04 259.342 17.856 259.314 17.668C259.286 17.48 259.272 17.246 259.272 16.966V16.552V13.402H257.958V12.52H259.272V10.72H260.34V12.52H262.296V13.402H260.34ZM264.128 16.06C264.172 16.736 264.362 17.256 264.698 17.62C265.038 17.984 265.506 18.166 266.102 18.166C266.526 18.166 266.896 18.068 267.212 17.872C267.532 17.676 267.782 17.394 267.962 17.026L268.988 17.38C268.736 17.948 268.358 18.39 267.854 18.706C267.35 19.022 266.782 19.18 266.15 19.18C265.518 19.18 264.962 19.04 264.482 18.76C264.006 18.48 263.636 18.084 263.372 17.572C263.112 17.06 262.982 16.47 262.982 15.802C262.982 15.102 263.11 14.492 263.366 13.972C263.626 13.448 263.99 13.046 264.458 12.766C264.93 12.482 265.478 12.34 266.102 12.34C266.722 12.34 267.256 12.48 267.704 12.76C268.156 13.036 268.502 13.434 268.742 13.954C268.982 14.47 269.102 15.084 269.102 15.796C269.102 15.912 269.1 16 269.096 16.06H264.128ZM266.138 13.3C265.558 13.3 265.1 13.462 264.764 13.786C264.428 14.11 264.222 14.582 264.146 15.202H267.986C267.854 13.934 267.238 13.3 266.138 13.3ZM271.938 12.916C272.118 12.772 272.33 12.662 272.574 12.586C272.818 12.51 273.064 12.472 273.312 12.472C273.468 12.472 273.622 12.488 273.774 12.52V13.522C273.606 13.482 273.444 13.462 273.288 13.462C272.9 13.462 272.568 13.564 272.292 13.768C272 13.976 271.796 14.25 271.68 14.59C271.564 14.926 271.506 15.312 271.506 15.748V19H270.432V12.52H271.386V13.546C271.538 13.282 271.722 13.072 271.938 12.916Z" fill="#252525"/>
</svg>
