<svg width="275" height="20" viewBox="0 0 275 20" fill="none" xmlns="http://www.w3.org/2000/svg">
<path d="M18.3018 8.51771C12.3984 12.6897 5.55247 18.8057 4.35938 20H5.52457C7.46136 20 8.05386 19.6967 9.66905 18.6801C9.97925 18.4848 11.0949 17.784 11.4735 17.5335C18.4461 12.9432 22.7556 11.332 28.692 11.8849C33.7299 12.354 39.0089 14.6336 44.8724 17.382C50.6615 20.0968 52.3727 20.7305 57.1736 18.8538C66.1807 15.3317 74.0098 10.621 74.9992 9.95526C74.9992 9.95526 68.0617 8.31174 58.8104 6.86873C47.4314 5.09575 35.5763 3.97273 23.0835 6.25111C21.2319 6.68634 20.1459 7.1851 18.3018 8.51771Z" fill="#F2F2F2"/>
<path d="M14.2224 4.27574C11.8044 6.55685 4.75708 14.3163 0 20H2.70509C3.08759 19.6153 3.52439 19.1828 3.93899 18.7681C10.1037 12.6183 17.5541 5.83912 28.796 0.0168866C28.796 0.0168866 24.3308 -0.223862 19.3631 1.11268C17.1509 1.7061 15.9848 2.45225 14.2224 4.27574Z" fill="#F2F2F2"/>
<path d="M120.968 0.494629L116.19 19.3381H110.988L115.763 0.494629H120.968Z" fill="#F2F2F2"/>
<path d="M134.301 7.65234L133.086 12.1746H122.555L123.78 7.65234H134.301Z" fill="#F2F2F2"/>
<path d="M174.533 0.494629L169.752 19.3381H164.555L169.328 0.494629H174.533Z" fill="#F2F2F2"/>
<path d="M94.7332 19.9975C87.4559 19.9975 83 18.2255 83 18.2255L87.4816 0.494629H92.6652L89.1203 14.729C89.1203 14.729 92.4551 15.5663 95.4603 15.5663C98.4345 15.5663 102.369 14.6803 102.369 14.6803L103.239 11.4413H108.445L106.584 18.3379C106.584 18.3373 101.94 19.9975 94.7332 19.9975Z" fill="#F2F2F2"/>
<path d="M154.195 19.3382L155.688 13.4662C154.884 12.5112 152.795 10.1172 151.099 8.84464C148.823 7.11544 145.729 5.59734 144.905 5.2132L141.332 19.3388H136.129L140.907 0.495361H146.106C147.992 1.33558 150.944 2.84773 154.374 5.42251C155.408 6.19672 156.335 6.96083 157.151 7.69342L158.973 0.495361H164.176L159.403 19.3388H154.195V19.3382Z" fill="#F2F2F2"/>
<path d="M174.898 19.3125L179.664 0.494629H184.93C186.817 1.34258 189.742 2.84999 193.142 5.3986C194.17 6.17341 195.098 6.93691 195.918 7.6701L197.739 0.494629H202.938L198.173 19.3125H192.968L194.456 13.4458C193.653 12.4908 191.559 10.0944 189.862 8.82132C187.589 7.09747 184.499 5.57699 183.683 5.1875L180.098 19.3131H174.898V19.3125Z" fill="#F2F2F2"/>
<path d="M226.824 18.3933C226.824 18.3933 222.235 20 215.125 20C207.979 19.9774 203.523 18.2583 203.523 18.2583L207.701 1.66557C207.701 1.66557 212.22 0 219.438 0C226.675 0 231.001 1.77736 231.001 1.77736L229.82 6.14973C229.82 6.14973 225.289 4.44906 218.704 4.42587C215.432 4.42587 211.862 5.33211 211.862 5.33211L209.623 14.7339C209.623 14.7339 212.91 15.5717 215.855 15.5717C218.765 15.5717 222.686 14.7059 222.686 14.7059L223.509 11.2862C221.822 11.0697 219.797 10.9116 217.532 10.9038C217.174 10.9038 216.697 10.9163 216.402 10.9348L217.225 7.28012C217.522 7.2599 218.273 7.24922 218.634 7.24922C223.918 7.27241 227.957 8.37723 229.322 8.8131L226.824 18.3933Z" fill="#F2F2F2"/>
<path d="M239.392 19.18C238.548 19.18 237.822 18.992 237.214 18.616C236.61 18.24 236.15 17.714 235.834 17.038C235.518 16.358 235.36 15.572 235.36 14.68C235.36 13.788 235.518 13.004 235.834 12.328C236.15 11.648 236.61 11.12 237.214 10.744C237.822 10.368 238.548 10.18 239.392 10.18C240.048 10.18 240.632 10.294 241.144 10.522C241.656 10.75 242.084 11.076 242.428 11.5C242.776 11.92 243.032 12.418 243.196 12.994L242.11 13.282C241.93 12.622 241.61 12.11 241.15 11.746C240.69 11.382 240.104 11.2 239.392 11.2C238.76 11.2 238.226 11.346 237.79 11.638C237.354 11.93 237.028 12.34 236.812 12.868C236.596 13.396 236.488 14.012 236.488 14.716C236.488 15.408 236.598 16.012 236.818 16.528C237.038 17.044 237.364 17.446 237.796 17.734C238.232 18.018 238.764 18.16 239.392 18.16C240.104 18.16 240.69 17.978 241.15 17.614C241.61 17.25 241.93 16.738 242.11 16.078L243.196 16.366C243.032 16.942 242.776 17.442 242.428 17.866C242.084 18.286 241.656 18.61 241.144 18.838C240.632 19.066 240.048 19.18 239.392 19.18ZM245.298 16.06C245.342 16.736 245.532 17.256 245.868 17.62C246.208 17.984 246.676 18.166 247.272 18.166C247.696 18.166 248.066 18.068 248.382 17.872C248.702 17.676 248.952 17.394 249.132 17.026L250.158 17.38C249.906 17.948 249.528 18.39 249.024 18.706C248.52 19.022 247.952 19.18 247.32 19.18C246.688 19.18 246.132 19.04 245.652 18.76C245.176 18.48 244.806 18.084 244.542 17.572C244.282 17.06 244.152 16.47 244.152 15.802C244.152 15.102 244.28 14.492 244.536 13.972C244.796 13.448 245.16 13.046 245.628 12.766C246.1 12.482 246.648 12.34 247.272 12.34C247.892 12.34 248.426 12.48 248.874 12.76C249.326 13.036 249.672 13.434 249.912 13.954C250.152 14.47 250.272 15.084 250.272 15.796C250.272 15.912 250.27 16 250.266 16.06H245.298ZM247.308 13.3C246.728 13.3 246.27 13.462 245.934 13.786C245.598 14.11 245.392 14.582 245.316 15.202H249.156C249.024 13.934 248.408 13.3 247.308 13.3ZM254.54 12.352C255.188 12.352 255.704 12.512 256.088 12.832C256.472 13.152 256.74 13.544 256.892 14.008C257.044 14.468 257.12 14.938 257.12 15.418V19H256.04V15.754C256.04 15.058 255.904 14.486 255.632 14.038C255.364 13.59 254.914 13.366 254.282 13.366C253.73 13.366 253.294 13.554 252.974 13.93C252.658 14.302 252.5 14.854 252.5 15.586V19H251.42V12.52H252.38V13.354C252.624 13.03 252.928 12.782 253.292 12.61C253.66 12.438 254.076 12.352 254.54 12.352ZM260.342 13.402V16.504V16.852C260.342 17.056 260.35 17.22 260.366 17.344C260.382 17.468 260.418 17.576 260.474 17.668C260.57 17.84 260.706 17.964 260.882 18.04C261.062 18.116 261.282 18.154 261.542 18.154C261.73 18.154 261.982 18.13 262.298 18.082V19C261.966 19.068 261.646 19.102 261.338 19.102C260.91 19.102 260.534 19.032 260.21 18.892C259.89 18.748 259.652 18.524 259.496 18.22C259.404 18.04 259.344 17.856 259.316 17.668C259.288 17.48 259.274 17.246 259.274 16.966V16.552V13.402H257.96V12.52H259.274V10.72H260.342V12.52H262.298V13.402H260.342ZM264.13 16.06C264.174 16.736 264.364 17.256 264.7 17.62C265.04 17.984 265.508 18.166 266.104 18.166C266.528 18.166 266.898 18.068 267.214 17.872C267.534 17.676 267.784 17.394 267.964 17.026L268.99 17.38C268.738 17.948 268.36 18.39 267.856 18.706C267.352 19.022 266.784 19.18 266.152 19.18C265.52 19.18 264.964 19.04 264.484 18.76C264.008 18.48 263.638 18.084 263.374 17.572C263.114 17.06 262.984 16.47 262.984 15.802C262.984 15.102 263.112 14.492 263.368 13.972C263.628 13.448 263.992 13.046 264.46 12.766C264.932 12.482 265.48 12.34 266.104 12.34C266.724 12.34 267.258 12.48 267.706 12.76C268.158 13.036 268.504 13.434 268.744 13.954C268.984 14.47 269.104 15.084 269.104 15.796C269.104 15.912 269.102 16 269.098 16.06H264.13ZM266.14 13.3C265.56 13.3 265.102 13.462 264.766 13.786C264.43 14.11 264.224 14.582 264.148 15.202H267.988C267.856 13.934 267.24 13.3 266.14 13.3ZM271.94 12.916C272.12 12.772 272.332 12.662 272.576 12.586C272.82 12.51 273.066 12.472 273.314 12.472C273.47 12.472 273.624 12.488 273.776 12.52V13.522C273.608 13.482 273.446 13.462 273.29 13.462C272.902 13.462 272.57 13.564 272.294 13.768C272.002 13.976 271.798 14.25 271.682 14.59C271.566 14.926 271.508 15.312 271.508 15.748V19H270.434V12.52H271.388V13.546C271.54 13.282 271.724 13.072 271.94 12.916Z" fill="#F2F2F2"/>
</svg>
