<svg width="14" height="14" viewBox="0 0 14 14" fill="none" xmlns="http://www.w3.org/2000/svg">
<path d="M13.3042 5.76926C13.3862 6.20859 13.4308 6.66792 13.4308 7.14726C13.4308 10.8966 10.9215 13.5626 7.13151 13.5626C6.26962 13.5629 5.41612 13.3933 4.61978 13.0636C3.82344 12.7339 3.09987 12.2505 2.49042 11.641C1.88097 11.0316 1.39758 10.308 1.06787 9.51166C0.738154 8.71532 0.568585 7.86182 0.568848 6.99992C0.568585 6.13803 0.738154 5.28453 1.06787 4.48819C1.39758 3.69185 1.88097 2.96828 2.49042 2.35883C3.09987 1.74938 3.82344 1.26599 4.61978 0.936274C5.41612 0.606562 6.26962 0.436993 7.13151 0.437256C8.90351 0.437256 10.3842 1.08926 11.5202 2.14792L9.67018 3.99792V3.99326C8.98151 3.33726 8.10751 3.00059 7.13151 3.00059C4.96618 3.00059 3.20618 4.82992 3.20618 6.99592C3.20618 9.16126 4.96618 10.9946 7.13151 10.9946C9.09618 10.9946 10.4335 9.87126 10.7082 8.32859H7.13151V5.76926H13.3048H13.3042Z" fill="#252525"/>
</svg>
