<svg width="16" height="16" viewBox="0 0 16 16" fill="none" xmlns="http://www.w3.org/2000/svg">
<path d="M2.65289 6.55992C2.6797 6.22579 2.83139 5.91402 3.07774 5.6867C3.32409 5.45937 3.64702 5.33318 3.98222 5.33325H12.0209C12.3561 5.33318 12.679 5.45937 12.9254 5.6867C13.1717 5.91402 13.3234 6.22579 13.3502 6.55992L13.8856 13.2266C13.9003 13.41 13.8769 13.5946 13.8168 13.7685C13.7567 13.9425 13.6612 14.1021 13.5364 14.2374C13.4116 14.3727 13.2601 14.4806 13.0916 14.5545C12.923 14.6284 12.7409 14.6665 12.5569 14.6666H3.44622C3.26217 14.6665 3.08012 14.6284 2.91154 14.5545C2.74296 14.4806 2.5915 14.3727 2.46669 14.2374C2.34188 14.1021 2.24642 13.9425 2.18634 13.7685C2.12625 13.5946 2.10283 13.41 2.11755 13.2266L2.65289 6.55992V6.55992Z" stroke="#F2F2F2" stroke-width="1.5" stroke-linecap="round" stroke-linejoin="round"/>
<path d="M10.6693 7.33325V3.99992C10.6693 3.29267 10.3883 2.6144 9.88822 2.1143C9.38813 1.6142 8.70985 1.33325 8.0026 1.33325C7.29536 1.33325 6.61708 1.6142 6.11699 2.1143C5.61689 2.6144 5.33594 3.29267 5.33594 3.99992V7.33325" stroke="#F2F2F2" stroke-width="1.5" stroke-linecap="round" stroke-linejoin="round"/>
</svg>
