<svg width="60" height="60" viewBox="0 0 60 60" fill="none" xmlns="http://www.w3.org/2000/svg">
<path d="M30 30C36.9036 30 42.5 24.4036 42.5 17.5C42.5 10.5964 36.9036 5 30 5C23.0964 5 17.5 10.5964 17.5 17.5C17.5 24.4036 23.0964 30 30 30Z" stroke="#252525" stroke-width="3.5"/>
<path d="M42.5002 35H43.3802C45.2078 35.0005 46.9725 35.6684 48.3424 36.8782C49.7124 38.088 50.5935 39.7564 50.8202 41.57L51.7977 49.38C51.8856 50.0836 51.8228 50.7978 51.6136 51.4753C51.4044 52.1528 51.0535 52.778 50.5842 53.3095C50.1149 53.841 49.5379 54.2666 48.8915 54.558C48.2452 54.8495 47.5442 55.0002 46.8352 55H13.1652C12.4561 55.0002 11.7551 54.8495 11.1088 54.558C10.4624 54.2666 9.88541 53.841 9.41609 53.3095C8.94678 52.778 8.59587 52.1528 8.38666 51.4753C8.17746 50.7978 8.11473 50.0836 8.20265 49.38L9.17765 41.57C9.40439 39.7556 10.2862 38.0865 11.6572 36.8765C13.0283 35.6666 14.7941 34.9993 16.6227 35H17.5002" stroke="#252525" stroke-width="3.5" stroke-linecap="round" stroke-linejoin="round"/>
</svg>
