<svg width="16" height="16" viewBox="0 0 16 16" fill="none" xmlns="http://www.w3.org/2000/svg">
<path d="M7.9974 7.99992C9.83834 7.99992 11.3307 6.50753 11.3307 4.66658C11.3307 2.82564 9.83834 1.33325 7.9974 1.33325C6.15645 1.33325 4.66406 2.82564 4.66406 4.66658C4.66406 6.50753 6.15645 7.99992 7.9974 7.99992Z" stroke="#F2F2F2" stroke-width="1.5"/>
<path d="M11.3321 9.33325H11.5667C12.0541 9.33339 12.5247 9.5115 12.89 9.83411C13.2553 10.1567 13.4903 10.6016 13.5507 11.0853L13.8114 13.1679C13.8349 13.3555 13.8181 13.546 13.7623 13.7267C13.7065 13.9073 13.613 14.0741 13.4878 14.2158C13.3627 14.3575 13.2088 14.471 13.0364 14.5487C12.8641 14.6265 12.6772 14.6666 12.4881 14.6666H3.50941C3.32033 14.6666 3.1334 14.6265 2.96104 14.5487C2.78867 14.471 2.63481 14.3575 2.50966 14.2158C2.3845 14.0741 2.29093 13.9073 2.23514 13.7267C2.17935 13.546 2.16263 13.3555 2.18607 13.1679L2.44607 11.0853C2.50654 10.6014 2.74168 10.1563 3.10729 9.83366C3.4729 9.51102 3.94379 9.33306 4.43141 9.33325H4.66541" stroke="#F2F2F2" stroke-width="1.5" stroke-linecap="round" stroke-linejoin="round"/>
</svg>
