<svg width="37" height="14" viewBox="0 0 37 14" fill="none" xmlns="http://www.w3.org/2000/svg">
<path d="M37 3.11171L32.1705 14H30.6767L32.4711 10.1897L29.2916 3.11055H30.8629L33.1637 8.53661H33.1938L35.4218 3.11055L37 3.11171ZM16.9352 6.47865V10.8897H15.4171V0.00144261H19.4338C20.3873 -0.0249298 21.3157 0.311096 22.0352 0.942924C22.7463 1.53208 23.1371 2.36506 23.1255 3.24588C23.1304 3.68915 23.0347 4.12767 22.8458 4.52786C22.6568 4.92804 22.3795 5.27928 22.0352 5.55467C21.3369 6.17415 20.4697 6.47865 19.4338 6.47865H16.9352ZM16.9294 1.34425V5.14167H19.4708C20.024 5.1617 20.5628 4.96092 20.9704 4.58285C21.3623 4.23053 21.5785 3.74987 21.5785 3.25171C21.5785 2.74772 21.3612 2.26707 20.9704 1.92057C20.7708 1.72889 20.5354 1.57913 20.278 1.47999C20.0206 1.38086 19.7462 1.33432 19.4708 1.34308L16.9294 1.34425ZM26.1664 3.11171C27.1295 3.11171 27.8949 3.38471 28.4545 3.92603C29.0141 4.46735 29.2916 5.20817 29.2916 6.14965V10.6517H28.0394V9.63675H27.9851C27.4428 10.4697 26.726 10.8886 25.8288 10.8886C25.0576 10.8886 24.4193 10.6517 23.9014 10.1711C23.6514 9.94785 23.4525 9.67254 23.3184 9.36415C23.1842 9.05577 23.118 8.72167 23.1244 8.38494C23.1244 7.63129 23.3949 7.03047 23.943 6.58015C24.4852 6.13682 25.2137 5.91166 26.1224 5.91166C26.8994 5.91166 27.5376 6.06332 28.0371 6.36082V6.04466C28.0387 5.81515 27.9917 5.58795 27.8992 5.37829C27.8066 5.16863 27.6708 4.98135 27.5006 4.82901C27.158 4.50536 26.7051 4.327 26.2357 4.33086C25.5073 4.33086 24.9292 4.65285 24.5014 5.29684L23.351 4.54319C23.9835 3.58887 24.9223 3.10938 26.1629 3.10938L26.1664 3.11171ZM24.4748 8.41644C24.4723 8.58933 24.5102 8.76038 24.5855 8.91568C24.6609 9.07097 24.7715 9.20611 24.9084 9.31009C25.1975 9.54692 25.5594 9.67525 25.9259 9.66825C26.4739 9.66825 27.0035 9.43726 27.3954 9.0301C27.8105 8.64161 28.0464 8.09445 28.0464 7.52279C27.6371 7.18213 27.0705 7.0118 26.3421 7.0118C25.8056 7.0118 25.3663 7.14597 25.0113 7.41313C24.6564 7.68612 24.4748 8.01512 24.4748 8.41528V8.41644ZM6.29468 0.00144261C7.85139 -0.0175023 9.35676 0.562799 10.5044 1.62424L8.70999 3.39871C8.05448 2.78505 7.1887 2.45176 6.29468 2.46889C5.5145 2.47275 4.7549 2.72176 4.12146 3.18132C3.48802 3.64089 3.0122 4.28816 2.76016 5.03318C2.49533 5.80479 2.49533 6.64385 2.76016 7.41546C3.0122 8.16048 3.48802 8.80775 4.12146 9.26731C4.7549 9.72688 5.5145 9.97589 6.29468 9.97975C7.14333 9.97975 7.8729 9.76742 8.43828 9.39059C8.76356 9.17685 9.04232 8.89855 9.25759 8.57263C9.47286 8.24671 9.62013 7.87999 9.69045 7.49479H6.29352V5.10084H12.2248C12.2977 5.51967 12.3335 5.93966 12.3335 6.36432C12.3335 8.26011 11.6467 9.86425 10.4605 10.9457C9.41874 11.8942 7.99199 12.446 6.29352 12.446C5.13421 12.452 3.99572 12.1352 3.00332 11.5305C2.01091 10.9257 1.20304 10.0565 0.668587 9.01843C0.22917 8.15336 0 7.19523 0 6.22315C0 5.25108 0.22917 4.29294 0.668587 3.42788C1.2024 2.39077 2.00916 1.52218 3.00025 0.917508C3.99134 0.312834 5.12842 -0.00452908 6.28658 0.000276603L6.29468 0.00144261Z" fill="#949494"/>
</svg>
