<svg width="22" height="14" viewBox="0 0 22 14" fill="none" xmlns="http://www.w3.org/2000/svg">
<path d="M8.14062 1.49707H14.1742V12.5026H8.14062V1.49707Z" fill="#949494"/>
<path d="M8.5237 7C8.5237 4.76392 9.55801 2.78055 11.1478 1.49718C9.97944 0.563869 8.5046 0 6.89564 0C3.0838 0 0 3.13051 0 7C0 10.8694 3.0838 14 6.89555 14C8.50451 14 9.97935 13.4361 11.1478 12.5027C9.55801 11.2388 8.5237 9.23608 8.5237 7Z" fill="#3F413E"/>
<path d="M21.9993 7C21.9993 10.8694 18.9155 14 15.1038 14C13.4948 14 12.02 13.4361 10.8516 12.5027C12.4605 11.2195 13.4757 9.23608 13.4757 7C13.4757 4.76392 12.4413 2.78055 10.8516 1.49718C12.0199 0.563869 13.4948 0 15.1038 0C18.9155 0 21.9994 3.15 21.9994 7H21.9993Z" fill="#949494"/>
</svg>
