<svg width="41" height="12" viewBox="0 0 41 12" fill="none" xmlns="http://www.w3.org/2000/svg">
<path d="M36.7841 0.0605469H28.8906C29.3504 2.66616 31.8794 5.1185 34.6383 5.1185H40.9224C40.9991 4.88859 40.999 4.50541 40.999 4.2755C40.999 1.97644 39.0831 0.0605469 36.7841 0.0605469Z" fill="#3F413E"/>
<path d="M29.582 5.57812V11.9389H33.4138V8.56691H36.7858C38.625 8.56691 40.2344 7.26411 40.7708 5.57812H29.582Z" fill="#949494"/>
<path d="M16.0938 0.0605469V11.8624H19.4657C19.4657 11.8624 20.3087 11.8624 20.7685 11.0194C23.0676 6.49793 23.7573 5.1185 23.7573 5.1185H24.2171V11.8624H28.0489V0.0605469H24.6769C24.6769 0.0605469 23.8339 0.137187 23.3741 0.903542C21.4582 4.81195 20.3853 6.80448 20.3853 6.80448H19.9255V0.0605469H16.0938Z" fill="#949494"/>
<path d="M0 11.9391V0.137207H3.83178C3.83178 0.137207 4.90468 0.137205 5.51777 1.82319C7.05048 6.26805 7.20376 6.88114 7.20376 6.88114C7.20376 6.88114 7.51029 5.80823 8.88973 1.82319C9.50281 0.137205 10.5757 0.137207 10.5757 0.137207H14.4075V11.9391H10.5757V5.57833H10.1159L7.97011 11.9391H6.28412L4.13834 5.57833H3.67852V11.9391H0Z" fill="#949494"/>
</svg>
