<svg width="284" height="313" viewBox="0 0 284 313" fill="none" xmlns="http://www.w3.org/2000/svg">
<path d="M248.221 190.276L259.46 185.309L260.051 182.74L250.47 180.531L251.053 178.002L271.928 182.816L271.347 185.344L262.294 183.257L262.039 184.359L269.165 194.804L268.469 197.822L261.24 187.266L247.527 193.292L248.221 190.276Z" fill="#DFFF4F"/>
<path d="M245.378 199.272L246.439 196.768L263.105 212.359L262.063 214.827L239.266 213.726L240.326 211.22L259.43 212.348L259.495 212.196L245.378 199.272ZM252.695 203.457L248.425 213.556L246.304 212.659L250.576 202.561L252.695 203.457Z" fill="#DFFF4F"/>
<path d="M253.309 227.7L255.246 228.943L246.572 242.468L244.633 241.226L248.271 235.555L232.176 225.231L233.575 223.048L249.672 233.371L253.309 227.7Z" fill="#DFFF4F"/>
<path d="M224.523 235.868L240.423 250.227L231.757 259.823L230.05 258.28L236.977 250.61L231.604 245.757L225.127 252.932L223.418 251.389L229.897 244.216L224.494 239.335L217.453 247.13L215.746 245.587L224.523 235.868Z" fill="#DFFF4F"/>
<path d="M214.119 275.028L212.672 273.238L220.708 266.739L208.684 251.869L210.702 250.238L224.172 266.899L214.119 275.028Z" fill="#DFFF4F"/>
<path d="M184.304 280.371C183.219 278.388 182.641 276.478 182.568 274.643C182.494 272.807 182.868 271.157 183.687 269.692C184.506 268.224 185.718 267.053 187.322 266.177C188.925 265.3 190.566 264.912 192.241 265.013C193.919 265.115 195.509 265.691 197.015 266.742C198.52 267.795 199.816 269.312 200.898 271.295C201.983 273.278 202.563 275.188 202.637 277.023C202.71 278.859 202.336 280.509 201.517 281.976C200.696 283.442 199.484 284.613 197.883 285.489C196.279 286.365 194.638 286.754 192.963 286.653C191.286 286.551 189.695 285.975 188.189 284.924C186.683 283.871 185.388 282.353 184.304 280.371ZM186.508 279.166C187.397 280.794 188.421 282.018 189.577 282.84C190.728 283.666 191.923 284.114 193.162 284.184C194.394 284.257 195.579 283.981 196.717 283.359C197.855 282.736 198.73 281.886 199.339 280.805C199.943 279.728 200.21 278.481 200.142 277.064C200.068 275.65 199.586 274.129 198.696 272.5C197.807 270.872 196.785 269.646 195.635 268.821C194.478 268 193.283 267.55 192.052 267.479C190.812 267.409 189.625 267.685 188.487 268.307C187.347 268.929 186.477 269.778 185.874 270.855C185.265 271.936 184.996 273.184 185.07 274.598C185.138 276.016 185.617 277.539 186.508 279.166Z" fill="#DFFF4F"/>
<path d="M172.4 273.544L179.166 293.872L172.299 296.159C170.702 296.689 169.303 296.835 168.099 296.597C166.891 296.367 165.88 295.846 165.066 295.038C164.253 294.227 163.647 293.224 163.249 292.025C162.85 290.829 162.732 289.658 162.896 288.516C163.052 287.376 163.54 286.345 164.359 285.427C165.181 284.513 166.381 283.794 167.963 283.269L172.886 281.628L173.613 283.812L168.769 285.425C167.677 285.789 166.863 286.27 166.328 286.866C165.79 287.465 165.481 288.133 165.396 288.873C165.308 289.625 165.4 290.405 165.67 291.219C165.941 292.033 166.335 292.71 166.854 293.252C167.366 293.795 168.016 294.135 168.806 294.277C169.598 294.426 170.546 294.316 171.651 293.948L175.977 292.508L169.938 274.363L172.4 273.544Z" fill="#DFFF4F"/>
<path d="M156.648 300.401L154.124 300.784L151.601 284.11L151.394 284.142L142.332 302.568L139.85 302.944L136.645 281.759L139.21 281.372L141.727 298.004L141.934 297.973L150.96 279.594L153.442 279.218L156.648 300.401Z" fill="#DFFF4F"/>
<path d="M128.696 303.312L126.146 303.205L126.862 286.356L126.653 286.347L114.231 302.699L111.723 302.592L112.632 281.186L115.224 281.297L114.51 298.103L114.719 298.112L127.097 281.801L129.606 281.906L128.696 303.312Z" fill="#DFFF4F"/>
<path d="M94.5668 297.264L93.9228 299.473L78.4961 294.979L79.1401 292.767L85.608 294.653L90.9587 276.294L93.4494 277.02L88.0988 295.38L94.5668 297.264Z" fill="#DFFF4F"/>
<path d="M57.1884 273.247C58.2134 271.235 59.4626 269.679 60.9365 268.582C62.4103 267.486 63.9836 266.862 65.6565 266.711C67.3294 266.562 68.98 266.901 70.6084 267.729C72.2369 268.559 73.4826 269.694 74.3456 271.135C75.2085 272.575 75.6303 274.214 75.611 276.051C75.5915 277.889 75.0693 279.813 74.0444 281.827C73.0194 283.841 71.77 285.397 70.2963 286.493C68.8224 287.59 67.2491 288.214 65.5762 288.363C63.9033 288.514 62.2527 288.174 60.6242 287.345C58.9959 286.516 57.7501 285.382 56.8872 283.941C56.024 282.499 55.6024 280.86 55.6217 279.025C55.6411 277.187 56.1634 275.261 57.1884 273.247ZM59.4258 274.387C58.5844 276.04 58.1508 277.576 58.125 278.995C58.093 280.411 58.3975 281.65 59.0388 282.711C59.6736 283.771 60.5692 284.594 61.7252 285.182C62.8813 285.771 64.0771 286.012 65.3131 285.905C66.5429 285.795 67.7236 285.312 68.8557 284.456C69.9816 283.598 70.9654 282.343 71.8068 280.689C72.6484 279.036 73.0851 277.5 73.1171 276.084C73.1429 274.667 72.8382 273.428 72.2034 272.369C71.5621 271.307 70.6636 270.482 69.5075 269.893C68.3514 269.305 67.1585 269.066 65.9288 269.174C64.693 269.281 63.5121 269.764 62.3862 270.623C61.2541 271.48 60.2674 272.733 59.4258 274.387Z" fill="#DFFF4F"/>
<path d="M56.2659 259.689L43.1624 276.64L37.2364 272.06C36.0557 271.146 35.2396 270.189 34.7884 269.187C34.3327 268.191 34.1819 267.208 34.3354 266.232C34.4849 265.264 34.8795 264.365 35.5193 263.539C36.0824 262.809 36.677 262.309 37.3032 262.034C37.9239 261.756 38.5504 261.642 39.1831 261.69C39.8102 261.734 40.4176 261.878 41.0057 262.121L41.1336 261.955C40.6405 261.521 40.2598 260.935 39.9915 260.199C39.7233 259.462 39.6515 258.648 39.7761 257.759C39.9006 256.868 40.3084 255.975 40.9994 255.08C41.6563 254.231 42.4403 253.616 43.3511 253.235C44.262 252.856 45.2875 252.79 46.4279 253.036C47.5682 253.283 48.806 253.922 50.1412 254.955L56.2659 259.689ZM52.8058 259.924L48.7336 256.776C47.3929 255.739 46.2405 255.262 45.2768 255.347C44.3032 255.432 43.5286 255.846 42.9527 256.592C42.5092 257.164 42.2459 257.807 42.163 258.52C42.0757 259.236 42.1895 259.95 42.5042 260.661C42.8146 261.377 43.3395 262.02 44.0788 262.592L48.2501 265.816L52.8058 259.924ZM46.8681 267.604L43.061 264.662C42.4431 264.183 41.7918 263.874 41.1077 263.734C40.4178 263.588 39.7561 263.623 39.1225 263.839C38.4832 264.049 37.9333 264.452 37.4726 265.048C36.8969 265.794 36.6678 266.626 36.7855 267.545C36.8989 268.471 37.5185 269.368 38.6442 270.239L42.5174 273.232L46.8681 267.604Z" fill="#DFFF4F"/>
<path d="M39.3672 245.644L41.2049 247.651L20.0945 256.325L18.2852 254.351L28.7657 234.076L30.6032 236.081L21.632 252.987L21.7453 253.11L39.3672 245.644ZM32.5186 250.558L25.1117 242.476L26.8085 240.922L34.2154 249.004L32.5186 250.558Z" fill="#DFFF4F"/>
<path d="M25.6362 229.53L7.68788 241.231L3.73487 235.166C2.81704 233.758 2.32085 232.441 2.24647 231.215C2.16251 229.989 2.40904 228.879 2.98606 227.886C3.56309 226.894 4.38039 226.054 5.43778 225.364C6.49535 224.675 7.5973 224.265 8.7438 224.134C9.88662 223.996 11.0062 224.208 12.1032 224.765C13.1941 225.329 14.1948 226.308 15.1049 227.704L17.9383 232.051L16.0104 233.309L13.2226 229.031C12.5943 228.067 11.9231 227.402 11.2091 227.034C10.4953 226.667 9.76933 226.537 9.0312 226.643C8.2835 226.748 7.55035 227.034 6.83173 227.503C6.11312 227.971 5.55801 228.525 5.16639 229.162C4.77109 229.796 4.60501 230.512 4.66835 231.311C4.72579 232.114 5.07249 233.003 5.70861 233.979L8.19917 237.801L24.2194 227.358L25.6362 229.53Z" fill="#DFFF4F"/>
<path d="M-1.59684 200.162C0.48756 199.289 2.44639 198.911 4.27965 199.029C6.11291 199.145 7.71602 199.688 9.0888 200.657C10.4616 201.624 11.5007 202.951 12.2063 204.636C12.9118 206.322 13.1274 207.992 12.8535 209.649C12.5793 211.306 11.8406 212.829 10.6374 214.217C9.4342 215.605 7.7904 216.736 5.70601 217.609C3.62161 218.481 1.6626 218.859 -0.170661 218.741C-2.00392 218.625 -3.60703 218.082 -4.97981 217.115C-6.35259 216.147 -7.39175 214.819 -8.09729 213.135C-8.80283 211.45 -9.01843 209.778 -8.74428 208.121C-8.47013 206.464 -7.73145 204.941 -6.52824 203.553C-5.32503 202.165 -3.68123 201.034 -1.59684 200.162ZM-0.627457 202.478C-2.33883 203.194 -3.66319 204.085 -4.6009 205.149C-5.54119 206.21 -6.11048 207.351 -6.30859 208.576C-6.50928 209.793 -6.35941 211.001 -5.85842 212.197C-5.35762 213.394 -4.60145 214.352 -3.59009 215.07C-2.5815 215.782 -1.36872 216.178 0.0482539 216.257C1.46246 216.331 3.02525 216.009 4.73644 215.292C6.44782 214.576 7.77365 213.689 8.71393 212.63C9.65165 211.564 10.2208 210.423 10.4216 209.206C10.6197 207.981 10.4684 206.77 9.96759 205.573C9.46661 204.376 8.71191 203.422 7.70331 202.71C6.69195 201.992 5.47917 201.596 4.06478 201.522C2.64781 201.443 1.08373 201.762 -0.627457 202.478Z" fill="#DFFF4F"/>
<path d="M6.41956 189.223L-14.5452 193.638L-16.0888 186.309C-16.3963 184.848 -16.3975 183.59 -16.0923 182.535C-15.7939 181.482 -15.2704 180.634 -14.5219 179.992C-13.7802 179.351 -12.8976 178.923 -11.8739 178.707C-10.9731 178.517 -10.1954 178.521 -9.54105 178.718C-8.88798 178.908 -8.33618 179.227 -7.88583 179.674C-7.43677 180.114 -7.06706 180.617 -6.77689 181.183L-6.57215 181.14C-6.66623 180.49 -6.57694 179.797 -6.30389 179.063C-6.03103 178.328 -5.5584 177.662 -4.886 177.064C-4.2136 176.467 -3.32468 176.051 -2.21905 175.818C-1.16811 175.597 -0.172584 175.637 0.767337 175.938C1.70744 176.239 2.53155 176.853 3.23985 177.78C3.94834 178.707 4.47639 179.996 4.82419 181.648L6.41956 189.223ZM3.63276 187.159L2.57224 182.122C2.22297 180.464 1.65423 179.354 0.866207 178.793C0.0697142 178.226 -0.789013 178.04 -1.71034 178.234C-2.42011 178.384 -3.03709 178.703 -3.56146 179.191C-4.09282 179.68 -4.46879 180.298 -4.68954 181.043C-4.9173 181.789 -4.93479 182.62 -4.7422 183.534L-3.65572 188.693L3.63276 187.159ZM-5.86679 189.159L-6.85845 184.451C-7.01956 183.686 -7.3147 183.028 -7.74443 182.477C-8.17545 181.919 -8.70202 181.517 -9.32416 181.27C-9.94776 181.017 -10.6281 180.968 -11.3651 181.123C-12.2864 181.317 -13.0003 181.802 -13.5066 182.579C-14.0199 183.357 -14.1299 184.442 -13.8367 185.833L-12.8278 190.624L-5.86679 189.159Z" fill="#DFFF4F"/>
<path d="M6.38168 124.18L-4.79758 129.275L-5.36061 131.85L4.2461 133.95L3.69209 136.485L-17.2383 131.91L-16.6843 129.375L-7.60906 131.359L-7.36768 130.255L-14.6112 119.891L-13.95 116.866L-6.60175 127.339L7.04303 121.155L6.38168 124.18Z" fill="#DFFF4F"/>
<path d="M9.11113 115.137L8.0797 117.654L-8.76172 102.251L-7.74613 99.7725L15.0614 100.617L14.03 103.134L-5.08581 102.219L-5.14933 102.374L9.11113 115.137ZM1.7479 111.034L5.90528 100.89L8.03478 101.763L3.87759 111.907L1.7479 111.034Z" fill="#DFFF4F"/>
<path d="M1.07912 86.373L-0.867188 85.1448L7.70883 71.5562L9.65514 72.7846L6.05932 78.4817L22.2311 88.6881L20.8466 90.8821L4.67476 80.6759L1.07912 86.373Z" fill="#DFFF4F"/>
<path d="M29.3605 78.4854L13.3047 64.3002L21.8656 54.6101L23.5904 56.134L16.7471 63.8797L22.1723 68.6728L28.5723 61.4287L30.2969 62.9525L23.897 70.1966L29.3535 75.0173L36.3076 67.1461L38.0324 68.6699L29.3605 78.4854Z" fill="#DFFF4F"/>
<path d="M39.3908 39.0952L40.8575 40.8688L32.8918 47.4549L45.0773 62.193L43.0777 63.8461L29.4258 47.3343L39.3908 39.0952Z" fill="#DFFF4F"/>
<path d="M69.1013 33.3976C70.2073 35.3681 70.8073 37.2706 70.9014 39.1053C70.9953 40.94 70.6405 42.5947 69.8369 44.0695C69.0332 45.5442 67.8346 46.7289 66.2412 47.6233C64.6479 48.5176 63.0124 48.9237 61.3349 48.8418C59.6572 48.7597 58.0598 48.2007 56.5426 47.1649C55.0255 46.129 53.7139 44.6257 52.6079 42.6553C51.5019 40.6848 50.9018 38.7823 50.8078 36.9476C50.7137 35.1131 51.0687 33.4582 51.8723 31.9834C52.676 30.5086 53.8746 29.324 55.468 28.4296C57.0613 27.5353 58.6968 27.1292 60.3743 27.2113C62.052 27.2934 63.6494 27.8522 65.1665 28.8882C66.6837 29.9241 67.9953 31.4272 69.1013 33.3976ZM66.9118 34.6264C66.0039 33.0088 64.967 31.7954 63.8009 30.9862C62.641 30.1737 61.4415 29.7394 60.2024 29.6831C58.9691 29.6234 57.7871 29.9112 56.6559 30.546C55.5247 31.181 54.6604 32.042 54.0629 33.1292C53.4716 34.2129 53.2175 35.4631 53.3011 36.8799C53.3906 38.2931 53.8893 39.8088 54.7972 41.4265C55.7053 43.0441 56.7393 44.2593 57.899 45.0718C59.0651 45.881 60.2646 46.3153 61.4978 46.375C62.7369 46.4311 63.9221 46.1419 65.0533 45.5069C66.1845 44.872 67.0458 44.0126 67.6372 42.9289C68.2345 41.8418 68.4886 40.5915 68.3991 39.1782C68.3157 37.7614 67.8199 36.2443 66.9118 34.6264Z" fill="#DFFF4F"/>
<path d="M81.4904 39.8806L74.5703 19.6043L81.4215 17.2662C83.0121 16.7233 84.4103 16.5666 85.6163 16.7962C86.8263 17.0169 87.8413 17.5291 88.6608 18.3326C89.4803 19.1361 90.094 20.1353 90.5016 21.3299C90.9095 22.5246 91.0358 23.6938 90.8807 24.8373C90.7323 25.9785 90.2523 27.0119 89.4408 27.9375C88.6268 28.8562 87.4311 29.585 85.8536 30.1233L80.943 31.7992L80.1997 29.6211L85.0311 27.9723C86.1202 27.6005 86.9305 27.1139 87.462 26.5124C87.9938 25.9111 88.2989 25.2394 88.3773 24.4978C88.4601 23.7473 88.3631 22.9663 88.086 22.1543C87.8089 21.3426 87.4094 20.6683 86.8872 20.1318C86.3717 19.5929 85.7186 19.2556 84.9282 19.1201C84.1354 18.9781 83.1879 19.095 82.0856 19.4714L77.769 20.9445L83.9456 39.0427L81.4904 39.8806Z" fill="#DFFF4F"/>
<path d="M96.5703 12.9375L99.0911 12.5362L101.742 29.19L101.949 29.1572L110.869 10.6615L113.348 10.2668L116.716 31.425L114.154 31.8328L111.51 15.2204L111.303 15.2533L102.418 33.7011L99.9382 34.0957L96.5703 12.9375Z" fill="#DFFF4F"/>
<path d="M124.154 9.70312L126.705 9.78193L126.184 26.6373L126.394 26.6438L138.625 10.1501L141.135 10.2276L140.473 31.642L137.88 31.5619L138.399 14.7483L138.19 14.7418L126.002 31.195L123.492 31.1175L124.154 9.70312Z" fill="#DFFF4F"/>
<path d="M159.152 15.436L159.778 13.2217L175.239 17.6006L174.613 19.8151L168.13 17.979L162.919 36.3783L160.423 35.6713L165.633 17.272L159.152 15.436Z" fill="#DFFF4F"/>
<path d="M196.49 39.0119C195.481 41.0333 194.244 42.5978 192.778 43.7052C191.311 44.8129 189.742 45.4479 188.072 45.6105C186.4 45.7731 184.747 45.4461 183.112 44.6293C181.477 43.8126 180.223 42.6869 179.35 41.2524C178.476 39.818 178.041 38.1821 178.047 36.3451C178.054 34.508 178.561 32.5788 179.571 30.5576C180.582 28.5362 181.819 26.9717 183.285 25.8643C184.751 24.7566 186.319 24.1216 187.991 23.959C189.663 23.7963 191.316 24.1234 192.951 24.9402C194.584 25.7569 195.838 26.8826 196.713 28.3171C197.585 29.7515 198.02 31.3872 198.014 33.2244C198.009 35.0615 197.501 36.9907 196.49 39.0119ZM194.246 37.8897C195.074 36.2303 195.496 34.6909 195.512 33.2719C195.533 31.8558 195.22 30.6193 194.57 29.5621C193.927 28.508 193.027 27.6911 191.865 27.1113C190.705 26.5313 189.508 26.2993 188.273 26.415C187.043 26.5339 185.866 27.0253 184.741 27.8896C183.62 28.7569 182.646 30.0203 181.818 31.6798C180.989 33.3392 180.562 34.877 180.542 36.293C180.527 37.7122 180.84 38.9488 181.483 40.0028C182.132 41.0598 183.037 41.8784 184.196 42.4582C185.356 43.0382 186.551 43.2685 187.781 43.1498C189.015 43.0341 190.193 42.5425 191.313 41.6752C192.438 40.8109 193.415 39.5492 194.246 37.8897Z" fill="#DFFF4F"/>
<path d="M197.605 52.5127L210.586 35.467L216.544 40.0048C217.731 40.909 218.554 41.86 219.013 42.8579C219.477 43.8503 219.635 44.834 219.488 45.8095C219.346 46.7792 218.958 47.6803 218.324 48.5125C217.766 49.2449 217.175 49.7505 216.551 50.0291C215.933 50.3119 215.307 50.4316 214.673 50.3879C214.045 50.3484 213.438 50.2093 212.849 49.9707L212.722 50.1372C213.217 50.5676 213.602 51.15 213.876 51.8843C214.15 52.6185 214.228 53.4318 214.11 54.3235C213.992 55.2153 213.591 56.1107 212.906 57.0097C212.254 57.8642 211.475 58.4847 210.567 58.8715C209.66 59.2582 208.634 59.3324 207.493 59.0939C206.349 58.8553 205.108 58.2249 203.764 57.2025L197.605 52.5127ZM201.065 52.2532L205.16 55.3714C206.508 56.3981 207.664 56.8661 208.627 56.7755C209.599 56.6835 210.37 56.2631 210.941 55.514C211.381 54.9369 211.639 54.2923 211.716 53.58C211.799 52.8623 211.679 52.1494 211.361 51.4413C211.044 50.7276 210.516 50.0876 209.772 49.5215L205.576 46.3274L201.065 52.2532ZM206.946 44.5295L210.774 47.4448C211.396 47.918 212.05 48.2227 212.734 48.3588C213.425 48.4991 214.086 48.4593 214.719 48.2395C215.356 48.0237 215.903 47.6162 216.36 47.0169C216.93 46.2678 217.153 45.4339 217.028 44.5151C216.908 43.5909 216.282 42.6979 215.15 41.8359L211.256 38.8699L206.946 44.5295Z" fill="#DFFF4F"/>
<path d="M214.708 66.429L212.855 64.4372L233.902 55.6091L235.725 57.5703L225.392 77.9205L223.54 75.9287L232.389 58.959L232.274 58.8365L214.708 66.429ZM221.52 61.4655L228.986 69.4944L227.299 71.0616L219.834 63.0328L221.52 61.4655Z" fill="#DFFF4F"/>
<path d="M228.699 82.5411L246.56 70.7104L250.559 76.746C251.487 78.1471 251.992 79.4601 252.077 80.6848C252.169 81.9114 251.931 83.0229 251.36 84.0194C250.791 85.0157 249.98 85.8624 248.928 86.5595C247.875 87.2566 246.776 87.6749 245.631 87.8146C244.489 87.9601 243.368 87.7575 242.267 87.2068C241.171 86.6523 240.164 85.6801 239.244 84.2904L236.379 79.9646L238.297 78.6936L241.116 82.9499C241.751 83.9093 242.427 84.5699 243.143 84.9319C243.861 85.2937 244.587 85.4187 245.325 85.3067C246.073 85.1968 246.803 84.905 247.518 84.4314C248.234 83.9577 248.785 83.4004 249.171 82.7593C249.562 82.1241 249.722 81.407 249.654 80.6079C249.589 79.8049 249.238 78.918 248.593 77.947L246.074 74.1444L230.132 84.7041L228.699 82.5411Z" fill="#DFFF4F"/>
<path d="M256.006 111.191C253.933 112.087 251.978 112.486 250.144 112.389C248.308 112.293 246.699 111.768 245.316 110.816C243.934 109.864 242.879 108.549 242.155 106.871C241.43 105.194 241.196 103.525 241.452 101.865C241.708 100.205 242.429 98.6741 243.617 97.2724C244.805 95.8709 246.434 94.7222 248.509 93.8265C250.584 92.9308 252.538 92.5312 254.373 92.6279C256.207 92.7246 257.816 93.2491 259.201 94.2014C260.584 95.1536 261.637 96.4684 262.362 98.1461C263.086 99.8236 263.321 101.492 263.065 103.152C262.809 104.812 262.088 106.343 260.9 107.745C259.713 109.146 258.081 110.295 256.006 111.191ZM255.012 108.886C256.715 108.15 258.03 107.245 258.956 106.169C259.884 105.1 260.44 103.952 260.624 102.725C260.812 101.505 260.648 100.299 260.134 99.1081C259.619 97.9172 258.853 96.9683 257.833 96.2613C256.816 95.5609 255.599 95.1787 254.182 95.1146C252.768 95.0571 251.208 95.3961 249.505 96.1315C247.802 96.8668 246.486 97.7694 245.558 98.8387C244.632 99.9145 244.076 101.063 243.888 102.283C243.704 103.509 243.869 104.718 244.383 105.909C244.897 107.1 245.663 108.046 246.679 108.746C247.699 109.453 248.916 109.836 250.33 109.893C251.748 109.957 253.309 109.621 255.012 108.886Z" fill="#DFFF4F"/>
<path d="M248.32 122.827L269.251 118.251L270.849 125.569C271.167 127.027 271.179 128.285 270.882 129.342C270.591 130.398 270.074 131.25 269.33 131.898C268.593 132.544 267.715 132.979 266.693 133.202C265.793 133.399 265.016 133.401 264.359 133.209C263.705 133.024 263.151 132.709 262.698 132.266C262.245 131.829 261.871 131.329 261.577 130.765L261.372 130.81C261.472 131.46 261.387 132.153 261.12 132.889C260.853 133.626 260.386 134.295 259.717 134.898C259.049 135.501 258.163 135.923 257.06 136.164C256.011 136.394 255.015 136.362 254.072 136.068C253.131 135.774 252.301 135.167 251.587 134.245C250.87 133.323 250.333 132.038 249.972 130.389L248.32 122.827ZM251.123 124.87L252.222 129.898C252.583 131.553 253.161 132.659 253.952 133.214C254.753 133.774 255.613 133.954 256.534 133.753C257.241 133.598 257.856 133.274 258.377 132.782C258.903 132.288 259.275 131.668 259.491 130.922C259.714 130.173 259.725 129.343 259.524 128.43L258.399 123.279L251.123 124.87ZM260.606 122.797L261.634 127.498C261.8 128.261 262.102 128.916 262.534 129.464C262.971 130.018 263.499 130.417 264.123 130.659C264.749 130.907 265.43 130.951 266.165 130.79C267.086 130.589 267.794 130.099 268.295 129.318C268.803 128.536 268.905 127.45 268.601 126.06L267.555 121.278L260.606 122.797Z" fill="#DFFF4F"/>
<path d="M262.062 154.438L266.665 154.57L264.167 150.697L265.916 149.68L268.083 153.764L270.186 149.647L271.95 150.637L269.512 154.548L274.113 154.345L274.128 156.353L269.525 156.222L272.023 160.094L270.274 161.112L268.107 157.028L266.006 161.145L264.241 160.154L266.678 156.244L262.077 156.447L262.062 154.438Z" fill="#DFFF4F"/>
</svg>
