<svg width="34" height="14" viewBox="0 0 34 14" fill="none" xmlns="http://www.w3.org/2000/svg">
<path d="M6.2126 1.80129C5.81419 2.2756 5.17675 2.64865 4.5393 2.59536C4.45962 1.95584 4.77303 1.2737 5.13956 0.858013C5.53797 0.373049 6.23385 0.0266464 6.80224 0C6.86598 0.66083 6.60569 1.31633 6.2126 1.80129ZM6.79161 2.71793C5.86731 2.66464 5.07582 3.24553 4.64023 3.24553C4.19401 3.24553 3.52469 2.74458 2.79163 2.76056C1.84077 2.77655 0.958967 3.31481 0.47557 4.17282C-0.523098 5.89418 0.215278 8.43624 1.18207 9.83784C1.65485 10.5306 2.21793 11.2927 2.96162 11.2661C3.66812 11.2394 3.94435 10.8078 4.79428 10.8078C5.64952 10.8078 5.89919 11.2661 6.64288 11.2554C7.41312 11.2394 7.89652 10.5626 8.3693 9.86981C8.90581 9.08108 9.12892 8.31899 9.13954 8.27636C9.12361 8.26037 7.65217 7.69547 7.63623 5.9901C7.62029 4.56186 8.79957 3.88504 8.85269 3.84241C8.18869 2.85116 7.15283 2.74458 6.79161 2.71793ZM12.1249 0.788732V11.1755H13.7345V7.62619H15.9602C17.9948 7.62619 19.4184 6.22459 19.4184 4.19947C19.4184 2.17434 18.016 0.788732 16.0134 0.788732H12.1249ZM13.7345 2.1477H15.5884C16.9855 2.1477 17.7823 2.8938 17.7823 4.2048C17.7823 5.5158 16.9855 6.27255 15.5831 6.27255H13.7345V2.1477ZM22.3506 11.2554C23.3599 11.2554 24.2949 10.7438 24.7198 9.92844H24.7517V11.1755H26.2391V6.00609C26.2391 4.50856 25.0439 3.53864 23.2059 3.53864C21.5007 3.53864 20.2364 4.51922 20.1886 5.8622H21.6388C21.761 5.22269 22.3506 4.80167 23.1581 4.80167C24.1408 4.80167 24.6933 5.25999 24.6933 6.10735V6.68291L22.6853 6.80548C20.8208 6.9174 19.8115 7.68481 19.8115 9.01713C19.8168 10.3601 20.858 11.2554 22.3506 11.2554ZM22.7862 10.0244C21.931 10.0244 21.3839 9.60868 21.3839 8.97983C21.3839 8.32432 21.9097 7.94595 22.9137 7.88732L24.6986 7.77541V8.36163C24.6986 9.33156 23.8752 10.0244 22.7862 10.0244ZM28.2311 14C29.7982 14 30.5365 13.3978 31.1793 11.5805L34 3.63989H32.3639L30.4728 9.77389H30.4409L28.5498 3.63989H26.8712L29.591 11.2021L29.4422 11.6604C29.1979 12.4385 28.7995 12.7423 28.0877 12.7423C27.9602 12.7423 27.7158 12.7263 27.6149 12.7156V13.9627C27.7105 13.984 28.1089 14 28.2311 14Z" fill="#949494"/>
</svg>
