<svg width="50" height="14" viewBox="0 0 50 14" fill="none" xmlns="http://www.w3.org/2000/svg">
<path opacity="0.5" fill-rule="evenodd" clip-rule="evenodd" d="M5.92117 10.858C8.0253 10.858 9.69781 9.1315 9.69781 6.97342C9.69781 4.81534 7.97135 3.08887 5.92117 3.08887C3.81704 3.08887 2.14453 4.81534 2.14453 6.97342C2.14453 9.1315 3.81704 10.858 5.92117 10.858Z" fill="white"/>
<path opacity="0.5" fill-rule="evenodd" clip-rule="evenodd" d="M11.8019 7.78227L9.32014 5.24652C9.26619 5.19257 9.21224 5.19257 9.15828 5.24652L7.48578 6.91903C7.43182 6.97299 7.43182 7.02693 7.48578 7.08088L8.29506 7.89016L9.42804 7.99807C9.482 7.99807 9.53595 8.05202 9.53595 8.10597V9.13107L9.96756 9.56268C10.0215 9.61663 10.0755 9.61663 10.1294 9.56268L11.8019 7.89016C11.8559 7.89016 11.8559 7.83622 11.8019 7.78227Z" fill="url(#paint0_linear_811_12975)"/>
<path opacity="0.5" fill-rule="evenodd" clip-rule="evenodd" d="M9.535 11.7749V8.16014C9.535 8.10619 9.48105 8.05225 9.4271 8.05225H7.05321C6.99926 8.05225 6.94531 8.10619 6.94531 8.16014V9.29314L7.70064 10.2643C7.75459 10.3182 7.75459 10.3722 7.70064 10.4261L6.94531 11.1815V11.7749C6.94531 11.8289 6.99926 11.8828 7.05321 11.8828H9.4271C9.48105 11.8828 9.535 11.8289 9.535 11.7749Z" fill="url(#paint1_linear_811_12975)"/>
<path opacity="0.5" fill-rule="evenodd" clip-rule="evenodd" d="M5.22175 12.9618L7.70355 10.4261C7.7575 10.3721 7.7575 10.3182 7.70355 10.2642L6.03103 8.59173C5.97708 8.53778 5.92314 8.53778 5.86918 8.59173L5.0599 9.40101L4.89805 10.5879C4.89805 10.6419 4.8441 10.6959 4.79014 10.6959H3.76505L3.33343 11.1275C3.27948 11.1814 3.27948 11.2354 3.33343 11.2893L5.00595 12.9618C5.0599 13.0158 5.1678 13.0158 5.22175 12.9618Z" fill="url(#paint2_linear_811_12975)"/>
<path opacity="0.5" fill-rule="evenodd" clip-rule="evenodd" d="M1.28142 10.6962H4.7883C4.84225 10.6962 4.8962 10.6422 4.8962 10.5882V8.21436C4.8962 8.1604 4.84225 8.10645 4.7883 8.10645H3.60135L2.73812 8.80783C2.68417 8.86178 2.63022 8.86178 2.57626 8.80783L1.87489 8.10645H1.28142C1.22747 8.10645 1.17351 8.1604 1.17351 8.21436V10.5882C1.11956 10.6422 1.17351 10.6962 1.28142 10.6962Z" fill="url(#paint3_linear_811_12975)"/>
<path opacity="0.5" fill-rule="evenodd" clip-rule="evenodd" d="M2.30469 2.22572V5.84051C2.30469 5.89446 2.35864 5.9484 2.41259 5.9484H4.78648C4.84044 5.9484 4.89439 5.89446 4.89439 5.84051V4.70751L4.13905 3.79032C4.0851 3.73637 4.0851 3.68242 4.13905 3.62847L4.89439 2.87315V2.27967C4.89439 2.22572 4.84044 2.17176 4.78648 2.17176H2.41259C2.35864 2.11781 2.30469 2.17176 2.30469 2.22572Z" fill="url(#paint4_linear_811_12975)"/>
<path opacity="0.5" fill-rule="evenodd" clip-rule="evenodd" d="M6.67851 1.03851L4.19671 3.57425C4.14276 3.6282 4.14276 3.68216 4.19671 3.73611L5.86923 5.40861C5.92318 5.46256 5.97713 5.46256 6.03108 5.40861L6.84036 4.59933L6.94827 3.4124C6.94827 3.35844 7.00222 3.30449 7.05617 3.30449H8.08126L8.51288 2.87288C8.56683 2.81892 8.56683 2.76496 8.51288 2.71101L6.84036 1.03851C6.78641 0.984559 6.73246 0.984559 6.67851 1.03851Z" fill="url(#paint5_linear_811_12975)"/>
<path opacity="0.5" fill-rule="evenodd" clip-rule="evenodd" d="M10.6148 3.30469H7.1079C7.05395 3.30469 7 3.35865 7 3.4126V5.78648C7 5.84044 7.05395 5.89439 7.1079 5.89439H8.29485L9.15808 5.19301C9.21203 5.13906 9.26599 5.13906 9.31994 5.19301L10.0213 5.89439H10.6148C10.6687 5.89439 10.7227 5.84044 10.7227 5.78648V3.4126C10.7227 3.35865 10.6687 3.30469 10.6148 3.30469Z" fill="url(#paint6_linear_811_12975)"/>
<path opacity="0.5" fill-rule="evenodd" clip-rule="evenodd" d="M0.040464 6.21809L2.52225 8.75384C2.5762 8.80779 2.63016 8.80779 2.68411 8.75384L4.35662 7.08133C4.41058 7.02737 4.41058 6.97343 4.35662 6.91948L3.54734 6.05624L2.41435 5.94833C2.3604 5.94833 2.30645 5.89439 2.30645 5.84044V4.81535L1.87483 4.38373C1.82088 4.32977 1.76692 4.32977 1.71297 4.38373L0.040464 6.05624C-0.013488 6.11019 -0.013488 6.16414 0.040464 6.21809Z" fill="url(#paint7_linear_811_12975)"/>
<path opacity="0.5" fill-rule="evenodd" clip-rule="evenodd" d="M9.5359 8.16031V9.18539L9.96752 9.61702L9.5359 8.16031ZM9.3201 5.19295L10.0215 5.89433H10.6149L9.3201 5.19295ZM7.05411 3.30463H8.0792L8.51082 2.87302L7.05411 3.30463ZM4.1407 3.57439L4.89603 2.81906V2.22559L4.1407 3.57439ZM2.30633 5.84038V4.81529L1.87472 4.38367L2.30633 5.84038ZM2.57609 8.75378L1.87472 8.05241H1.28125L2.57609 8.75378ZM4.78813 10.6961H3.76304L3.33142 11.1277L4.78813 10.6961ZM7.70154 10.4263L6.94621 11.1816V11.7751L7.70154 10.4263Z" fill="#949494"/>
<path d="M17.7364 7.99831C17.7364 8.10621 17.7364 8.16016 17.6824 8.26807C17.6824 8.37597 17.6285 8.42992 17.5745 8.53783C17.5206 8.64573 17.4127 8.69968 17.3048 8.75363C17.1969 8.80758 17.089 8.80759 16.9271 8.86154H15.6862V7.24298H16.9271C17.089 7.24298 17.2508 7.29692 17.3587 7.35087C17.4666 7.40483 17.5745 7.51273 17.6285 7.62064C17.6824 7.67459 17.7364 7.83645 17.7364 7.99831ZM23.6711 9.77872V9.02339C23.6711 8.91549 23.6711 8.86154 23.6172 8.86154C23.6172 8.80759 23.5632 8.80759 23.4553 8.80759H21.1893C21.0814 8.80759 20.9735 8.80758 20.8656 8.75363C20.7577 8.69968 20.7037 8.64573 20.7037 8.59178C20.6498 8.53783 20.6498 8.42992 20.6498 8.26807V7.29692H23.0776C23.1316 7.29692 23.1855 7.29693 23.1855 7.24298C23.1855 7.18903 23.2395 7.13507 23.2395 7.08111V6.37975C23.2395 6.32579 23.2395 6.21788 23.1855 6.21788C23.1855 6.16393 23.1316 6.16394 23.0776 6.16394H20.6498V5.51651C20.6498 5.40861 20.6498 5.3007 20.7037 5.24675C20.7577 5.1928 20.8116 5.0849 20.8656 5.03095C20.9196 4.97699 21.0814 4.97699 21.1893 4.97699H23.3474C23.4013 4.97699 23.4553 4.97699 23.4553 4.92303C23.4553 4.86908 23.5093 4.86909 23.5093 4.76119V4.00586C23.5093 3.95191 23.5092 3.84399 23.4553 3.84399C23.4553 3.79004 23.4013 3.79004 23.3474 3.79004H20.9196C20.6498 3.79004 20.38 3.844 20.2182 3.89795C20.0024 4.00585 19.8405 4.11376 19.7326 4.27562C19.6247 4.43748 19.5168 4.59933 19.4629 4.81514C19.4089 5.03095 19.3549 5.19279 19.3549 5.4086V8.26807C19.3549 8.48387 19.3549 8.64573 19.4089 8.86154C19.4628 9.0234 19.5168 9.2392 19.6787 9.34711C19.7866 9.50896 19.9484 9.61686 20.1642 9.72476C20.38 9.83266 20.6498 9.88663 20.9196 9.88663H23.4553C23.5092 9.88663 23.5632 9.88662 23.6172 9.83267C23.6711 9.88662 23.6711 9.83267 23.6711 9.77872ZM33.3825 6.70346C33.5443 6.5416 33.7062 6.37974 33.8141 6.21788C33.922 6.05602 34.0299 5.84023 34.0838 5.57047L34.4615 4.00586V3.9519C34.4615 3.89795 34.4615 3.89795 34.4076 3.89795C34.4076 3.89795 34.3536 3.84399 34.2996 3.84399H33.3285C33.2746 3.84399 33.2746 3.84399 33.2206 3.84399C33.1667 3.84399 33.1667 3.89795 33.1667 3.9519L32.789 5.4086C32.735 5.57046 32.6811 5.73232 32.6271 5.84023C32.5732 5.94813 32.4653 6.00208 32.3574 6.05603C32.2495 6.10998 32.1955 6.16394 32.0876 6.16394C31.9797 6.16394 31.9258 6.16394 31.8179 6.16394H31.1704V3.9519C31.1704 3.89795 31.1704 3.84399 31.1704 3.84399C31.1704 3.84399 31.1165 3.84399 31.0625 3.84399H30.0914C30.0374 3.84399 29.9835 3.84399 29.9835 3.84399C29.9835 3.84399 29.9295 3.89795 29.9295 3.9519V9.72476C29.9295 9.77871 29.9295 9.83267 29.9835 9.83267C29.9835 9.83267 30.0374 9.83267 30.0914 9.83267H31.0625C31.1165 9.83267 31.1704 9.83267 31.1704 9.83267C31.1704 9.83267 31.2244 9.77871 31.2244 9.72476V7.13507H31.9258C32.1416 7.13507 32.3034 7.13507 32.4113 7.18903C32.5732 7.24298 32.6811 7.29693 32.735 7.40483C32.8429 7.51273 32.8969 7.67458 32.9508 7.83644L33.4904 9.72476C33.4904 9.77871 33.5443 9.83267 33.5443 9.83267C33.5983 9.83267 33.5983 9.83267 33.6522 9.83267H34.6234C34.6773 9.83267 34.6773 9.83267 34.7313 9.77872L34.7852 9.72476C34.7852 9.67081 34.7852 9.67082 34.7852 9.67082L34.2457 7.67459C34.1918 7.56669 34.1917 7.40482 34.1378 7.29692C34.0838 7.18902 34.0299 7.08111 33.9759 7.02716C33.922 6.91926 33.8141 6.86531 33.7601 6.81135C33.6522 6.86531 33.4904 6.75741 33.3825 6.70346ZM36.9433 7.62064L37.267 6.54159L37.5907 5.30071H37.6447L37.9684 6.54159L38.2921 7.62064H36.9433ZM38.5619 8.69968L38.8856 9.83267C38.8856 9.88662 38.9395 9.94058 38.9935 9.94058C39.0474 9.94058 39.1014 9.94058 39.1553 9.94058H40.1804C40.2344 9.94058 40.2344 9.94058 40.2883 9.88663L40.3423 9.83267V9.77872L38.5619 4.32956C38.5079 4.1677 38.454 4.11376 38.4 4.00586C38.346 3.95191 38.2921 3.89795 38.1842 3.89795C38.0763 3.89795 38.0223 3.84399 37.8605 3.84399H37.3749C37.267 3.84399 37.1591 3.844 37.1052 3.89795C37.0512 3.89795 36.9433 3.9519 36.8894 4.0598C36.8354 4.11375 36.7814 4.22166 36.7814 4.32956L35.001 9.77872C35.001 9.83267 35.001 9.88663 35.001 9.88663C35.001 9.94058 35.055 9.94058 35.1089 9.94058H36.0801C36.134 9.94058 36.188 9.94058 36.2419 9.88663C36.2959 9.88663 36.2959 9.83267 36.2959 9.77872L36.6196 8.69968H38.5619ZM43.9031 5.89418C43.9031 6.05604 43.8492 6.16393 43.7952 6.32579C43.7412 6.43369 43.6333 6.5416 43.5254 6.59555C43.4175 6.6495 43.2557 6.70346 43.0399 6.70346H41.9069V5.03095H42.9859C43.1478 5.03095 43.3096 5.08489 43.4175 5.13884C43.5255 5.19279 43.6334 5.24676 43.6873 5.35466C43.7413 5.46256 43.7952 5.51652 43.7952 5.62442C43.8492 5.67837 43.9031 5.78628 43.9031 5.89418ZM41.9069 9.77872V7.7825H43.0399C43.3636 7.7825 43.6333 7.72854 43.8492 7.67459C44.065 7.62064 44.2808 7.51273 44.4426 7.40483C44.6045 7.29693 44.7124 7.13506 44.8203 7.02716C44.9282 6.8653 44.9822 6.75741 45.0361 6.59555C45.0901 6.43369 45.144 6.3258 45.144 6.16394C45.144 6.05604 45.198 5.89417 45.198 5.78627C45.198 5.51651 45.144 5.24675 45.0361 5.03095C44.9282 4.81514 44.8203 4.59933 44.6584 4.43747C44.4966 4.27561 44.2808 4.11375 44.011 4.0598C43.7412 3.9519 43.4715 3.89795 43.2017 3.89795H41.0976C40.9897 3.89795 40.8818 3.89795 40.7739 3.9519C40.7199 4.00586 40.666 4.0598 40.612 4.11375C40.5581 4.16771 40.5581 4.27561 40.5581 4.38351V9.72476C40.5581 9.77871 40.5581 9.83267 40.612 9.88663C40.666 9.94058 40.666 9.94058 40.7739 9.94058H41.6911C41.745 9.94058 41.799 9.94058 41.799 9.94058C41.8529 9.94058 41.8529 9.94058 41.8529 9.88663C41.9069 9.88663 41.9069 9.83267 41.9069 9.77872ZM49.9997 4.81514V4.0598C49.9997 4.00585 49.9997 3.9519 49.9457 3.89795C49.9457 3.89795 49.8918 3.84399 49.7839 3.84399H45.4138C45.3598 3.84399 45.3059 3.844 45.3059 3.89795C45.3059 3.89795 45.2519 3.9519 45.2519 4.0598V4.81514C45.2519 4.86909 45.2519 4.92303 45.3059 4.92303C45.3059 4.97699 45.3598 4.97699 45.4138 4.97699H46.9244V9.72476C46.9244 9.77871 46.9244 9.83267 46.9784 9.88663C47.0323 9.94058 47.0323 9.94058 47.1402 9.94058H48.0574C48.1653 9.94058 48.2193 9.94058 48.2193 9.88663C48.2732 9.88663 48.2732 9.83266 48.2732 9.72476V4.97699H49.8378C49.8918 4.97699 49.9457 4.97699 49.9457 4.92303C49.9457 4.92303 49.9997 4.86909 49.9997 4.81514ZM14.8769 9.94058H17.035C17.3048 9.94058 17.5745 9.88662 17.8443 9.77872C18.1141 9.67081 18.3299 9.56292 18.4917 9.40106C18.6536 9.2392 18.8154 9.02339 18.9233 8.80759C19.0312 8.59178 19.0852 8.32202 19.0852 8.05226C19.0852 7.94436 19.0852 7.83645 19.0852 7.72855C19.0852 7.62064 19.0312 7.45878 18.9773 7.29692C18.9233 7.13506 18.8694 7.02717 18.7615 6.86531C18.6536 6.70345 18.5457 6.59554 18.3838 6.48764C18.222 6.37974 18.0061 6.27183 17.7903 6.21788C17.5745 6.16393 17.2508 6.10999 16.9271 6.10999H15.6862V5.03095H18.2759C18.3299 5.03095 18.3838 5.03094 18.3838 4.97699C18.3838 4.97699 18.4378 4.92303 18.4378 4.86908V4.11375C18.4378 4.0598 18.4378 4.00586 18.3838 3.9519C18.3838 3.89795 18.3299 3.89795 18.2759 3.89795H14.9848C14.8769 3.89795 14.769 3.89795 14.6611 3.9519C14.6072 4.00586 14.4993 4.05981 14.4993 4.16771C14.4453 4.27561 14.4453 4.38352 14.4453 4.49143V9.455C14.4453 9.5629 14.4453 9.67081 14.4993 9.77872C14.5532 9.83267 14.5532 9.88663 14.6611 9.94058C14.6611 9.94058 14.769 9.94058 14.8769 9.94058ZM24.966 4.49143L24.912 5.78627C24.912 6.21789 24.858 6.64951 24.8041 6.97322C24.7501 7.51274 24.6962 8.86154 23.9948 8.86154C23.9409 8.86154 23.8869 8.86153 23.833 8.91548C23.833 8.96943 23.779 9.02339 23.779 9.07735V9.83267C23.779 9.88662 23.779 9.94057 23.833 9.99452C23.833 10.0485 23.8869 10.0485 23.9948 10.0485C24.5343 10.0485 25.0199 9.99453 25.3976 9.40106C25.5055 9.18525 25.6134 8.96944 25.7213 8.75363C25.7752 8.48387 25.8831 8.21411 25.8831 7.94435C25.9371 7.62064 25.991 7.29693 25.991 6.97322C26.045 6.59556 26.045 6.21789 26.0989 5.78627L26.1529 5.19279H27.8254V9.94058C27.8254 9.99453 27.8254 10.0485 27.8794 10.0485C27.8794 10.0485 27.9333 10.1024 27.9873 10.1024H28.9045C28.9584 10.1024 29.0124 10.1024 29.0124 10.1024C29.0663 10.1024 29.0663 10.1024 29.0663 10.0485C29.0663 10.0485 29.0663 9.99453 29.0663 9.94058V4.59932C29.0663 4.49142 29.0663 4.38352 29.0124 4.27562C28.9584 4.16772 28.9044 4.11375 28.8505 4.0598C28.7965 4.00585 28.6886 4.00586 28.5268 4.00586H25.4515C25.3436 4.00586 25.2357 4.00585 25.1278 4.0598C25.0739 4.11375 25.0199 4.16772 24.966 4.27562C25.0199 4.22167 25.0199 4.32957 24.966 4.49143Z" fill="#949494"/>
<defs>
<linearGradient id="paint0_linear_811_12975" x1="7.38661" y1="7.10883" x2="11.8804" y2="7.7404" gradientUnits="userSpaceOnUse">
<stop stop-color="#F0F0F0"/>
<stop offset="0.5" stop-color="#DFDFDF"/>
<stop offset="1" stop-color="#999999"/>
</linearGradient>
<linearGradient id="paint1_linear_811_12975" x1="6.90765" y1="8.12066" x2="9.58884" y2="11.811" gradientUnits="userSpaceOnUse">
<stop stop-color="#F3F3F3"/>
<stop offset="0.5" stop-color="#DEDEDE"/>
<stop offset="1" stop-color="#8C8C8C"/>
</linearGradient>
<linearGradient id="paint2_linear_811_12975" x1="5.84571" y1="8.49575" x2="5.20816" y2="13.0324" gradientUnits="userSpaceOnUse">
<stop stop-color="#F5F5F5"/>
<stop offset="0.5" stop-color="#D8D8D8"/>
<stop offset="1" stop-color="#8F8F8F"/>
</linearGradient>
<linearGradient id="paint3_linear_811_12975" x1="4.92091" y1="8.04068" x2="1.23479" y2="10.6217" gradientUnits="userSpaceOnUse">
<stop stop-color="#F3F3F3"/>
<stop offset="0.5" stop-color="#D7D7D7"/>
<stop offset="1" stop-color="#9B9B9B"/>
</linearGradient>
<linearGradient id="paint4_linear_811_12975" x1="4.9164" y1="5.889" x2="2.29795" y2="2.14942" gradientUnits="userSpaceOnUse">
<stop stop-color="#F4F4F4"/>
<stop offset="0.5" stop-color="#DDDDDD"/>
<stop offset="1" stop-color="#949494"/>
</linearGradient>
<linearGradient id="paint5_linear_811_12975" x1="5.98441" y1="5.48765" x2="6.70176" y2="0.958554" gradientUnits="userSpaceOnUse">
<stop stop-color="#F2F2F2"/>
<stop offset="0.5" stop-color="#E0E0E0"/>
<stop offset="1" stop-color="#9D9D9D"/>
</linearGradient>
<linearGradient id="paint6_linear_811_12975" x1="7.00486" y1="5.95293" x2="10.6675" y2="3.29191" gradientUnits="userSpaceOnUse">
<stop stop-color="#F7F7F7"/>
<stop offset="0.5" stop-color="#DBDBDB"/>
<stop offset="1" stop-color="#969696"/>
</linearGradient>
<linearGradient id="paint7_linear_811_12975" x1="4.46938" y1="6.91926" x2="-0.0162935" y2="6.20882" gradientUnits="userSpaceOnUse">
<stop stop-color="#FCFCFC"/>
<stop offset="0.5" stop-color="#E0E0E0"/>
<stop offset="1" stop-color="#A3A3A3"/>
</linearGradient>
</defs>
</svg>
