<svg width="8" height="12" viewBox="0 0 8 12" fill="none" xmlns="http://www.w3.org/2000/svg">
<path d="M6.28413 6.52814H5.34776C3.8771 6.52814 2.45089 5.76017 2.45089 3.84007C2.45089 1.83976 3.78784 1.02392 5.14717 1.02392H6.28412V6.52814H6.28413ZM7.7548 0H5.21403C2.71849 0 0.601282 1.36001 0.601282 4.0001C0.601282 5.58413 1.62676 6.75205 3.45352 7.32806L0.0445865 11.7441C-0.0667526 11.8883 0.0445865 12 0.222335 12H1.80449C1.93822 12 2.02746 11.9681 2.07193 11.8883L5.16939 7.55197H6.2841V11.8883C6.2841 11.9361 6.35097 12 6.43946 12H7.82163C7.95536 12 7.99999 11.952 7.99999 11.8723V0.160128C7.99999 0.047856 7.91073 0 7.75478 0" fill="#252525"/>
</svg>
