<svg width="60" height="60" viewBox="0 0 60 60" fill="none" xmlns="http://www.w3.org/2000/svg">
<path d="M38.75 10H45C46.3261 10 47.5979 10.5268 48.5355 11.4645C49.4732 12.4021 50 13.6739 50 15V47.5C50 48.8261 49.4732 50.0979 48.5355 51.0355C47.5979 51.9732 46.3261 52.5 45 52.5H15C13.6739 52.5 12.4021 51.9732 11.4645 51.0355C10.5268 50.0979 10 48.8261 10 47.5V15C10 13.6739 10.5268 12.4021 11.4645 11.4645C12.4021 10.5268 13.6739 10 15 10H21.25" stroke="#AACD0A" stroke-width="3" stroke-linecap="round" stroke-linejoin="round"/>
<path d="M21.5525 8.7875C21.8229 7.7058 22.4471 6.74552 23.3258 6.05926C24.2046 5.37301 25.2875 5.00017 26.4025 5H33.595C34.71 5.00017 35.7929 5.37301 36.6717 6.05926C37.5504 6.74552 38.1746 7.7058 38.445 8.7875L40 15H20L21.5525 8.7875Z" stroke="#AACD0A" stroke-width="3" stroke-linecap="round" stroke-linejoin="round"/>
<path d="M22.5 30H37.5M22.5 40H37.5" stroke="#AACD0A" stroke-width="3" stroke-linecap="round"/>
</svg>
