<svg width="16" height="16" viewBox="0 0 16 16" fill="none" xmlns="http://www.w3.org/2000/svg">
<path d="M7.99984 9.83333C8.30926 9.83333 8.606 9.71041 8.82479 9.49162C9.04359 9.27283 9.1665 8.97608 9.1665 8.66666V4.66666C9.1665 4.35725 9.04359 4.0605 8.8248 3.84171C8.606 3.62291 8.30926 3.5 7.99984 3.5C7.69042 3.5 7.39367 3.62291 7.17488 3.84171L7.52843 4.19526L7.17488 3.84171C6.95609 4.0605 6.83317 4.35724 6.83317 4.66666V8.66666C6.83317 8.97608 6.95609 9.27283 7.17488 9.49162L7.52843 9.13807L7.17488 9.49162C7.39367 9.71041 7.69042 9.83333 7.99984 9.83333ZM7.99984 9.83333C7.69042 9.83333 7.39367 9.95625 7.17488 10.175L7.52843 10.5286L7.17488 10.175C6.95609 10.3938 6.83317 10.6906 6.83317 11V11.3333C6.83317 11.6427 6.95609 11.9395 7.17488 12.1583C7.39367 12.3771 7.69042 12.5 7.99984 12.5C8.30926 12.5 8.606 12.3771 8.82479 12.1583C9.04359 11.9395 9.1665 11.6427 9.1665 11.3333V11C9.1665 10.6906 9.04359 10.3938 8.8248 10.175C8.606 9.95625 8.30926 9.83333 7.99984 9.83333ZM1.1665 8C1.1665 4.22614 4.22598 1.16666 7.99984 1.16666C11.7737 1.16666 14.8332 4.22614 14.8332 8C14.8332 11.7739 11.7737 14.8333 7.99984 14.8333C4.22598 14.8333 1.1665 11.7739 1.1665 8Z" fill="#AACD0A" stroke="#AACD0A"/>
</svg>
